<svg xmlns="http://www.w3.org/2000/svg" viewBox="0 0 180 48" role="img" aria-labelledby="title desc">
  <title id="title">ePop Logo</title>
  <desc id="desc">Stylized lettering for the ePop brand.</desc>
  <rect width="180" height="48" rx="12" fill="#111827"/>
  <g transform="translate(20 12)" fill="none" fill-rule="evenodd">
    <path d="M14.6 8.2H6.4C6.6 5.7 8.4 4 11.2 4c2.3 0 3.8.9 5 2.4l4.4-3.4C18.8 1.1 15.9 0 12.1 0 5.7 0 0 4.3 0 12c0 7.4 5.1 12 11.5 12 6.9 0 11.1-4.4 11.1-10.7 0-1.1-.1-2-.3-3.1H14.6v-2z" fill="#FDE68A"/>
    <path d="M31.5 10.2c1.2-2.3 3.2-3.6 6-3.6 3.9 0 7 2.7 7 7.7 0 4.9-3.1 7.7-7 7.7-2.8 0-4.8-1.3-6-3.6V32h-6.6V7h6.6v3.2z" fill="#FDE68A"/>
    <path d="M58.9 6.6c6.1 0 10.9 4.3 10.9 10.7 0 6.3-4.7 10.7-10.9 10.7s-10.9-4.4-10.9-10.7c0-6.4 4.8-10.7 10.9-10.7zm0 5.8c-2.8 0-4.6 1.8-4.6 4.9 0 3 1.8 4.8 4.6 4.8 2.8 0 4.6-1.8 4.6-4.8 0-3.1-1.9-4.9-4.6-4.9z" fill="#FDE68A"/>
    <path d="M90.4 6.6c6.1 0 10.9 4.3 10.9 10.7 0 6.3-4.7 10.7-10.9 10.7s-10.9-4.4-10.9-10.7c0-6.4 4.8-10.7 10.9-10.7zm0 5.8c-2.8 0-4.6 1.8-4.6 4.9 0 3 1.8 4.8 4.6 4.8 2.8 0 4.6-1.8 4.6-4.8 0-3.1-1.9-4.9-4.6-4.9z" fill="#FDE68A"/>
  </g>
</svg>
